<?xml version="1.0" encoding="utf-8"?>
<!-- Generator: Adobe Illustrator 12.0.0, SVG Export Plug-In . SVG Version: 6.00 Build 51448)  -->
<!DOCTYPE svg PUBLIC "-//W3C//DTD SVG 1.1//EN" "http://www.w3.org/Graphics/SVG/1.1/DTD/svg11.dtd" [
	<!ENTITY ns_svg "http://www.w3.org/2000/svg">
	<!ENTITY ns_xlink "http://www.w3.org/1999/xlink">
]>
<svg  version="1.1" xmlns="&ns_svg;" xmlns:xlink="&ns_xlink;" width="575.594" height="92.78" viewBox="0 0 575.594 92.78"
	 overflow="visible" enable-background="new 0 0 575.594 92.78" xml:space="preserve">
<g id="youranalytics" display="none">
	<g display="inline">
		<g>
			<path fill="#B22B75" d="M45.878,24.33c2.57-2.57,2.575-6.739,0-9.31c-2.572-2.574-6.739-2.574-9.307,0
				c-2.574,2.57-2.574,6.739,0,9.31C39.14,26.9,43.306,26.9,45.878,24.33z"/>
			<path fill="#7F2059" d="M44.167,7.114c1.629-1.631,1.629-4.269,0-5.896c-1.628-1.624-4.261-1.624-5.889,0
				c-1.624,1.627-1.624,4.265,0,5.896C39.906,8.741,42.54,8.741,44.167,7.114z"/>
			<linearGradient id="XMLID_3_" gradientUnits="userSpaceOnUse" x1="37.3389" y1="-4.9756" x2="74.7303" y2="97.7565">
				<stop  offset="0" style="stop-color:#E8368F"/>
				<stop  offset="1" style="stop-color:#8E2361"/>
			</linearGradient>
			<path fill="url(#XMLID_3_)" d="M33.088,54.526c4.489,4.494,11.779,4.494,16.274,0c3.585-3.588,4.3-8.948,2.164-13.251
				l14.298-14.298c4.304,2.139,9.667,1.423,13.253-2.165c4.496-4.491,4.496-11.784,0-16.275c-4.495-4.494-11.783-4.494-16.274,0
				c-3.587,3.583-4.303,8.946-2.167,13.25l-14.302,14.3c-3.214-1.595-7.017-1.598-10.228-0.006L21.812,21.788
				c2.136-4.304,1.42-9.668-2.166-13.25c-4.495-4.494-11.779-4.494-16.275,0c-4.495,4.491-4.495,11.784,0,16.275
				c3.588,3.588,8.949,4.303,13.254,2.165l14.297,14.298C28.783,45.577,29.499,50.938,33.088,54.526z M108.699,67.968
				c-3.585-3.589-8.946-4.305-13.25-2.167L81.15,51.5c2.136-4.305,1.421-9.664-2.166-13.246c-4.493-4.496-11.778-4.496-16.275,0
				c-3.585,3.583-4.301,8.94-2.166,13.246l-14.3,14.303c-4.304-2.136-9.664-1.421-13.248,2.165c-4.495,4.492-4.495,11.781,0,16.273
				c4.493,4.498,11.778,4.498,16.271,0c3.588-3.584,4.304-8.946,2.166-13.25L65.73,56.696c3.214,1.594,7.016,1.59,10.23-0.005
				l14.3,14.298c-2.139,4.305-1.423,9.667,2.166,13.252c4.492,4.494,11.775,4.498,16.273,0
				C113.192,79.749,113.192,72.46,108.699,67.968z"/>
			<path fill="#B22B75" d="M75.502,68.455c2.569,2.566,2.569,6.731,0,9.306c-2.574,2.57-6.739,2.57-9.309,0
				c-2.572-2.574-2.572-6.739,0-9.306C68.764,65.881,72.928,65.881,75.502,68.455z"/>
			<path fill="#7F2059" d="M73.793,85.669c1.625,1.629,1.625,4.263,0,5.892c-1.623,1.626-4.266,1.626-5.891,0
				c-1.63-1.629-1.63-4.263,0-5.892C69.528,84.042,72.17,84.042,73.793,85.669z"/>
		</g>
		<g>
			<g>
				<g>
					<path d="M153.287,19.666c0.246-0.541,0.933-0.983,1.527-0.983h9.799c0.594,0,0.852,0.429,0.572,0.953l-15.877,29.779
						c-0.28,0.524-0.508,1.439-0.508,2.033v16.719c0,0.594-0.486,1.08-1.08,1.08h-8.362c-0.594,0-1.08-0.486-1.08-1.08V51.392
						c0-0.594-0.235-1.505-0.522-2.025l-16.441-29.738c-0.287-0.52-0.037-0.945,0.558-0.945h10.284c0.594,0,1.289,0.439,1.544,0.975
						l9.555,20.074c0.255,0.536,0.666,0.533,0.912-0.008L153.287,19.666z"/>
				</g>
				<g>
					<path d="M196.27,64.666c-3.153,3.896-7.939,5.843-14.359,5.843c-6.42,0-11.208-1.946-14.36-5.843
						c-3.153-3.895-4.729-8.587-4.729-14.069c0-5.392,1.576-10.066,4.729-14.02s7.94-5.93,14.36-5.93
						c6.42,0,11.206,1.977,14.359,5.93s4.73,8.627,4.73,14.02C201,56.079,199.423,60.771,196.27,64.666z M188.429,59.33
						c1.526-2.042,2.29-4.945,2.29-8.707c0-3.765-0.764-6.66-2.29-8.691c-1.526-2.031-3.714-3.047-6.561-3.047
						c-2.848,0-5.041,1.017-6.579,3.047c-1.538,2.031-2.307,4.927-2.307,8.691c0,3.762,0.769,6.665,2.307,8.707
						c1.538,2.042,3.73,3.063,6.579,3.063C184.715,62.393,186.902,61.372,188.429,59.33z"/>
				</g>
				<g>
					<path d="M215.958,31.85c0.594,0,1.08,0.486,1.08,1.08v20.42c0,0.594,0.032,1.565,0.072,2.157c0,0,0.177,2.658,0.677,3.733
						c0.884,1.901,2.619,2.852,5.204,2.852c3.311,0,5.579-1.351,6.804-4.055c0.635-1.465,0.952-3.4,0.952-5.808v-19.3
						c0-0.594,0.486-1.08,1.08-1.08h7.76c0.594,0,1.08,0.486,1.08,1.08v35.237c0,0.594-0.486,1.08-1.08,1.08h-7.339
						c-0.594,0-1.08-0.486-1.08-1.08v-3.086c0-0.594-0.144-0.875-0.319-0.624c0,0,0,0-0.364,0.569
						c-0.365,0.571-0.798,1.073-1.299,1.505c-1.527,1.37-3.003,2.304-4.428,2.806c-1.424,0.502-3.093,0.752-5.007,0.752
						c-5.517,0-9.231-1.984-11.146-5.953c-1.071-2.198-1.606-5.438-1.606-9.719V32.93c0-0.594,0.486-1.08,1.08-1.08H215.958z"/>
				</g>
				<g>
					<path d="M270.173,31.023c0.126,0.011,0.406,0.026,0.841,0.045v8.96c0,0.594-0.483,1.031-1.074,0.971
						c0,0-0.09-0.009-0.569-0.034s-0.867-0.038-1.164-0.038c-3.926,0-6.562,1.28-7.908,3.837c-0.753,1.439-1.129,3.652-1.129,6.644
						v16.758c0,0.594-0.486,1.08-1.08,1.08h-7.64c-0.594,0-1.08-0.486-1.08-1.08V32.93c0-0.594,0.486-1.08,1.08-1.08h7.099
						c0.594,0,1.08,0.486,1.08,1.08v4.401c0,0.594,0.271,0.677,0.604,0.185c0,0,2.221-3.296,3.342-4.211
						c1.83-1.53,4.208-2.296,7.136-2.296C269.893,31.008,270.047,31.016,270.173,31.023z"/>
				</g>
				<g>
					<path d="M290.994,19.7c0.2-0.56,0.85-1.017,1.443-1.017h9.821c0.594,0,1.242,0.458,1.439,1.019l17.138,48.527
						c0.197,0.561-0.127,1.019-0.721,1.019h-9.291c-0.594,0-1.229-0.463-1.409-1.028l-2.673-8.345
						c-0.181-0.565-0.815-1.028-1.409-1.028h-16.445c-0.594,0-1.232,0.462-1.418,1.025l-2.756,8.351
						c-0.186,0.563-0.824,1.025-1.418,1.025h-8.917c-0.594,0-0.917-0.458-0.717-1.017L290.994,19.7z M291.025,49.102
						c-0.187,0.564,0.147,1.025,0.741,1.025h10.771c0.594,0,0.932-0.463,0.751-1.028l-5.711-17.825
						c-0.181-0.565-0.481-0.567-0.668-0.003L291.025,49.102z"/>
				</g>
				<g>
					<path d="M356.25,34.033c2.442,2.014,3.663,5.364,3.663,10.05v24.084c0,0.594-0.486,1.08-1.08,1.08h-7.88
						c-0.594,0-1.08-0.486-1.08-1.08v-20.56c0-0.594-0.036-1.564-0.081-2.157c0,0-0.181-2.395-0.699-3.447
						c-0.946-1.916-2.754-2.878-5.418-2.878c-3.277,0-5.522,1.406-6.742,4.216c-0.633,1.484-0.948,3.382-0.948,5.689v19.137
						c0,0.594-0.486,1.08-1.08,1.08h-7.641c-0.594,0-1.08-0.486-1.08-1.08V32.99c0-0.594,0.486-1.08,1.08-1.08h7.34
						c0.594,0,1.08,0.486,1.08,1.08v3.33c0,0.594,0.289,0.689,0.642,0.211c0,0,1.788-2.423,2.904-3.267
						c1.999-1.503,4.531-2.257,7.598-2.257C350.668,31.008,353.807,32.017,356.25,34.033z"/>
				</g>
				<g>
					<path d="M382.041,46.678c0.59-0.072,1.552-0.21,2.138-0.307c0,0,2.052-0.336,2.834-0.678c1.405-0.594,2.105-1.518,2.105-2.771
						c0-1.527-0.537-2.583-1.611-3.164c-1.075-0.581-2.651-0.874-4.731-0.874c-2.335,0-3.987,0.575-4.956,1.725
						c-0.693,0.85-1.156,2-1.387,3.446h-8.359c-0.594,0-0.99-0.478-0.88-1.062c0,0,0.925-4.915,2.556-7.027
						c2.593-3.305,7.046-4.958,13.362-4.958c4.107,0,7.76,0.815,10.95,2.439c3.192,1.627,4.788,4.689,4.788,9.188v16.047
						c0,0.594,0.004,1.566,0.009,2.16c0,0,0.014,1.547,0.061,3.234c0.069,1.277,0.265,2.146,0.588,2.601
						c0.323,0.456,0.808,0.832,1.456,1.127v0.363c0,0.594-0.486,1.08-1.08,1.08h-8.491c-0.594,0-1.238-0.46-1.431-1.021
						c0,0-0.153-0.446-0.268-1.111s-0.205-1.423-0.274-2.271c-1.356,1.462-2.922,2.705-4.691,3.731
						c-2.115,1.21-4.508,1.814-7.174,1.814c-3.404,0-6.215-0.962-8.436-2.89c-2.217-1.928-3.327-4.657-3.327-8.191
						c0-4.585,1.782-7.902,5.349-9.954c1.954-1.118,4.83-1.917,8.628-2.396L382.041,46.678z M389.083,52.197
						c0-0.594-0.425-0.843-0.943-0.554c0,0-0.31,0.173-0.945,0.411c-0.635,0.239-1.509,0.461-2.617,0.665l-1.155,0.214
						c-0.584,0.107-1.535,0.304-2.115,0.435c0,0-2.519,0.569-3.422,1.092c-1.529,0.887-2.294,2.262-2.294,4.128
						c0,1.661,0.468,2.861,1.403,3.598c0.938,0.74,2.076,1.108,3.418,1.108c2.127,0,4.086-0.612,5.879-1.841
						c1.792-1.229,2.725-3.469,2.792-6.719V52.197z"/>
				</g>
				<g>
					<path d="M416.647,68.167c0,0.594-0.486,1.08-1.08,1.08h-7.64c-0.594,0-1.08-0.486-1.08-1.08V19.823
						c0-0.594,0.486-1.08,1.08-1.08h7.64c0.594,0,1.08,0.486,1.08,1.08V68.167z"/>
				</g>
				<g>
					<path d="M426.917,77.602c0-0.594,0.279-1.066,0.621-1.05s1.107,0.031,1.701,0.032c0,0,0.803,0.002,1.677-0.115
						c0.873-0.116,1.608-0.387,2.205-0.806c0.573-0.396,1.109-1.226,1.604-2.482c0.494-1.261,0.704-2.029,0.631-2.311
						l-13.384-38.002c-0.197-0.56,0.128-1.019,0.722-1.019h8.709c0.594,0,1.218,0.466,1.387,1.036l7.56,25.515
						c0.169,0.569,0.438,0.567,0.598-0.005l7.131-25.506c0.16-0.572,0.777-1.04,1.371-1.04h8.227c0.594,0,0.92,0.459,0.725,1.02
						l-12.1,34.742c-0.195,0.561-0.53,1.473-0.744,2.027c0,0-4.047,10.494-5.492,12.2c-1.446,1.706-4.336,2.559-8.673,2.559
						c-0.871,0-1.57-0.004-2.101-0.015c-0.525-0.01-1.318-0.045-2.373-0.105V77.602z"/>
				</g>
				<g>
					<path d="M461.058,39.125c-0.594,0-1.08-0.486-1.08-1.08v-4.754c0-0.594,0.486-1.08,1.08-1.08h3.071
						c0.594,0,1.08-0.486,1.08-1.08v-8.301c0-0.594,0.486-1.08,1.08-1.08h7.52c0.594,0,1.08,0.486,1.08,1.08v8.301
						c0,0.594,0.486,1.08,1.08,1.08h3.912c0.594,0,1.08,0.486,1.08,1.08v4.754c0,0.594-0.486,1.08-1.08,1.08h-3.912
						c-0.594,0-1.08,0.486-1.08,1.08V57.87c0,0.594,0.037,1.564,0.083,2.157c0,0,0.11,1.42,0.501,1.798
						c0.388,0.38,1.578,0.567,3.566,0.567c0.297,0,0.612-0.008,0.943-0.03c0.332-0.019,0.657-0.049,0.979-0.09v6.194
						c0,0.594-0.485,1.105-1.078,1.137l-2.477,0.129c-0.593,0.03-1.563,0.016-2.154-0.033c0,0-6.703-0.552-8.396-2.316
						c-1.099-1.124-1.647-2.853-1.647-5.191V40.205c0-0.594-0.486-1.08-1.08-1.08H461.058z"/>
				</g>
				<g>
					<path d="M496.49,26.32c0,0.594-0.486,1.08-1.08,1.08h-7.761c-0.594,0-1.08-0.486-1.08-1.08v-6.858
						c0-0.594,0.486-1.08,1.08-1.08h7.761c0.594,0,1.08,0.486,1.08,1.08V26.32z M486.569,32.93c0-0.594,0.486-1.08,1.08-1.08h7.761
						c0.594,0,1.08,0.486,1.08,1.08v35.237c0,0.594-0.486,1.08-1.08,1.08h-7.761c-0.594,0-1.08-0.486-1.08-1.08V32.93z"/>
				</g>
				<g>
					<path d="M528.763,45.317c-0.594,0-1.196-0.472-1.339-1.049c0,0-0.398-1.619-1.156-2.747c-1.103-1.518-2.816-2.277-5.139-2.277
						c-3.311,0-5.572,1.646-6.79,4.934c-0.646,1.732-0.966,4.032-0.966,6.901c0,2.733,0.319,4.932,0.962,6.593
						c1.167,3.147,3.367,4.72,6.595,4.72c2.293,0,3.918-0.624,4.88-1.873c0.962-1.25,1.546-2.869,1.753-4.86h8.9
						c0.594,0,0.974,0.474,0.843,1.054c0,0-1.066,4.732-2.983,7.384c-3.063,4.276-7.596,6.412-13.603,6.412
						c-6.009,0-10.428-1.773-13.261-5.324c-2.832-3.549-4.246-8.169-4.246-13.858c0-6.42,1.566-11.412,4.704-14.975
						c3.134-3.563,7.463-5.344,12.979-5.344c4.693,0,8.533,1.054,11.521,3.159c2.987,2.104,4.755,5.823,5.306,11.151H528.763z"/>
				</g>
				<g>
					<path d="M550.224,57.342c0.594,0,1.185,0.475,1.313,1.055c0,0,0.422,1.914,1.113,2.647c1.219,1.3,3.476,1.95,6.766,1.95
						c1.934,0,3.47-0.284,4.608-0.855c1.139-0.569,1.71-1.426,1.71-2.568c0-1.094-0.464-1.928-1.391-2.499
						c-0.926-0.571-4.34-1.55-10.235-2.94c-4.246-1.046-7.239-2.357-8.978-3.934c-1.736-1.552-2.604-3.788-2.604-6.71
						c0-3.446,1.357-6.407,4.074-8.883c2.717-2.476,6.538-3.716,11.468-3.716c4.675,0,8.485,0.932,11.432,2.796
						c2.945,1.864,4.637,5.081,5.072,9.65h-8.72c-0.594,0-1.184-0.475-1.311-1.055c0,0-0.262-1.203-0.833-1.938
						c-1.074-1.33-2.904-1.997-5.486-1.997c-2.127,0-3.642,0.334-4.543,0.998s-1.353,1.443-1.353,2.335
						c0,1.124,0.479,1.935,1.439,2.439c0.96,0.528,4.36,1.428,10.202,2.705c3.893,0.909,6.811,2.289,8.751,4.136
						c1.917,1.869,2.875,4.205,2.875,7.008c0,3.692-1.383,6.706-4.145,9.043c-2.762,2.334-7.031,3.502-12.807,3.502
						c-5.892,0-10.24-1.235-13.049-3.708c-2.809-2.475-4.21-5.626-4.21-9.459H550.224z"/>
				</g>
			</g>
		</g>
	</g>
</g>
<g id="youranalytics_2_">
	<g>
		<g>
			<path fill="#B22B75" d="M45.878,24.33c2.57-2.57,2.575-6.739,0-9.31c-2.572-2.574-6.739-2.574-9.307,0
				c-2.574,2.57-2.574,6.739,0,9.31C39.14,26.9,43.306,26.9,45.878,24.33z"/>
			<path fill="#7F2059" d="M44.167,7.114c1.629-1.631,1.629-4.269,0-5.896c-1.628-1.624-4.261-1.624-5.889,0
				c-1.624,1.627-1.624,4.265,0,5.896C39.906,8.741,42.54,8.741,44.167,7.114z"/>
			<path fill="url(#XMLID_3_)" d="M33.088,54.526c4.489,4.494,11.779,4.494,16.274,0c3.585-3.588,4.3-8.948,2.164-13.251
				l14.298-14.298c4.304,2.139,9.667,1.423,13.253-2.165c4.496-4.491,4.496-11.784,0-16.275c-4.495-4.494-11.783-4.494-16.274,0
				c-3.587,3.583-4.303,8.946-2.167,13.25l-14.302,14.3c-3.214-1.595-7.017-1.598-10.228-0.006L21.812,21.788
				c2.136-4.304,1.42-9.668-2.166-13.25c-4.495-4.494-11.779-4.494-16.275,0c-4.495,4.491-4.495,11.784,0,16.275
				c3.588,3.588,8.949,4.303,13.254,2.165l14.297,14.298C28.783,45.577,29.499,50.938,33.088,54.526z M108.699,67.968
				c-3.585-3.589-8.946-4.305-13.25-2.167L81.15,51.5c2.136-4.305,1.421-9.664-2.166-13.246c-4.493-4.496-11.778-4.496-16.275,0
				c-3.585,3.583-4.301,8.94-2.166,13.246l-14.3,14.303c-4.304-2.136-9.664-1.421-13.248,2.165c-4.495,4.492-4.495,11.781,0,16.273
				c4.493,4.498,11.778,4.498,16.271,0c3.588-3.584,4.304-8.946,2.166-13.25L65.73,56.696c3.214,1.594,7.016,1.59,10.23-0.005
				l14.3,14.298c-2.139,4.305-1.423,9.667,2.166,13.252c4.492,4.494,11.775,4.498,16.273,0
				C113.192,79.749,113.192,72.46,108.699,67.968z"/>
			<path fill="#B22B75" d="M75.502,68.455c2.569,2.566,2.569,6.731,0,9.306c-2.574,2.57-6.739,2.57-9.309,0
				c-2.572-2.574-2.572-6.739,0-9.306C68.764,65.881,72.928,65.881,75.502,68.455z"/>
			<path fill="#7F2059" d="M73.793,85.669c1.625,1.629,1.625,4.263,0,5.892c-1.623,1.626-4.266,1.626-5.891,0
				c-1.63-1.629-1.63-4.263,0-5.892C69.528,84.042,72.17,84.042,73.793,85.669z"/>
		</g>
		<path d="M153.734,18.683l-10.015,22.024l-10.484-22.024h-12.444l17.486,31.629v18.936H148.8V50.368l16.894-31.686H153.734z
			 M181.911,30.647c-6.42,0-11.208,1.977-14.36,5.93s-4.729,8.627-4.729,14.02c0,5.482,1.576,10.175,4.729,14.069
			c3.153,3.896,7.94,5.843,14.36,5.843c6.42,0,11.206-1.946,14.359-5.843c3.153-3.895,4.73-8.587,4.73-14.069
			c0-5.392-1.577-10.066-4.73-14.02S188.331,30.647,181.911,30.647z M188.429,59.33c-1.526,2.042-3.714,3.063-6.561,3.063
			c-2.848,0-5.041-1.021-6.579-3.063c-1.538-2.042-2.307-4.945-2.307-8.707c0-3.765,0.769-6.66,2.307-8.691
			c1.538-2.031,3.73-3.047,6.579-3.047c2.847,0,5.035,1.017,6.561,3.047c1.526,2.031,2.29,4.927,2.29,8.691
			C190.719,54.385,189.955,57.288,188.429,59.33z M230.746,52.229c0,2.407-0.317,4.343-0.952,5.808
			c-1.225,2.704-3.493,4.055-6.804,4.055c-2.585,0-4.319-0.95-5.204-2.852c-0.5-1.075-0.749-2.68-0.749-4.811V31.85h-10.041v22.567
			c0,4.281,0.536,7.521,1.606,9.719c1.915,3.969,5.629,5.953,11.146,5.953c1.914,0,3.583-0.25,5.007-0.752
			c1.424-0.502,2.9-1.436,4.428-2.806c0.501-0.432,0.935-0.934,1.299-1.505c0.364-0.569,0.592-0.911,0.684-1.025v5.246h9.5V31.85
			h-9.92V52.229z M269.71,31.008c-2.927,0-5.306,0.767-7.136,2.296c-1.122,0.915-2.437,2.615-3.946,5.106V31.85h-9.259v37.397h9.8
			V51.409c0-2.992,0.375-5.205,1.129-6.644c1.346-2.557,3.982-3.837,7.908-3.837c0.297,0,0.685,0.013,1.164,0.038
			s1.027,0.072,1.643,0.143V31.068c-0.435-0.019-0.715-0.034-0.841-0.045C270.047,31.016,269.893,31.008,269.71,31.008z
			 M291.357,18.683l-18.061,50.564h11.078l3.433-10.401h18.605l3.331,10.401h11.451l-17.856-50.564H291.357z M290.687,50.127
			l6.562-19.882l6.369,19.882H290.687z M356.25,34.033c-2.443-2.016-5.582-3.025-9.423-3.025c-3.066,0-5.599,0.754-7.598,2.257
			c-1.116,0.844-2.297,2.223-3.546,4.135v-5.49h-9.5v37.337h9.801V49.03c0-2.308,0.315-4.205,0.948-5.689
			c1.22-2.811,3.465-4.216,6.742-4.216c2.664,0,4.472,0.962,5.418,2.878c0.519,1.052,0.78,2.559,0.78,4.524v22.72h10.04V44.083
			C359.913,39.397,358.692,36.047,356.25,34.033z M399.507,66.677c-0.323-0.455-0.519-1.323-0.588-2.601
			c-0.047-1.688-0.069-3.127-0.069-4.314V42.634c0-4.498-1.596-7.561-4.788-9.188c-3.19-1.624-6.843-2.439-10.95-2.439
			c-6.316,0-10.77,1.654-13.362,4.958c-1.631,2.112-2.55,4.808-2.756,8.088h9.439c0.23-1.446,0.693-2.596,1.387-3.446
			c0.969-1.15,2.621-1.725,4.956-1.725c2.08,0,3.656,0.293,4.731,0.874c1.074,0.581,1.611,1.637,1.611,3.164
			c0,1.253-0.7,2.178-2.105,2.771c-0.782,0.342-2.082,0.627-3.899,0.854l-3.346,0.411c-3.798,0.479-6.674,1.277-8.628,2.396
			c-3.566,2.052-5.349,5.369-5.349,9.954c0,3.534,1.11,6.264,3.327,8.191c2.221,1.928,5.031,2.89,8.436,2.89
			c2.666,0,5.059-0.604,7.174-1.814c1.77-1.026,3.335-2.27,4.691-3.731c0.069,0.849,0.16,1.606,0.274,2.271s0.321,1.377,0.618,2.133
			h10.651v-1.443C400.314,67.509,399.83,67.133,399.507,66.677z M389.083,54.734c-0.067,3.25-1,5.49-2.792,6.719
			c-1.793,1.229-3.752,1.841-5.879,1.841c-1.342,0-2.48-0.368-3.418-1.108c-0.936-0.736-1.403-1.937-1.403-3.598
			c0-1.866,0.765-3.241,2.294-4.128c0.903-0.522,2.396-0.966,4.476-1.33l2.217-0.41c1.108-0.204,1.982-0.426,2.617-0.665
			c0.636-0.238,1.265-0.55,1.889-0.938V54.734z M406.848,69.247h9.8V18.743h-9.8V69.247z M440.655,59.436l-8.173-27.586h-10.869
			l13.742,39.021c0.073,0.281-0.137,1.05-0.631,2.311c-0.494,1.257-1.03,2.086-1.604,2.482c-0.597,0.419-1.332,0.689-2.205,0.806
			c-0.874,0.117-1.793,0.154-2.757,0.113l-1.242-0.061v7.756c1.055,0.061,1.848,0.096,2.373,0.105
			c0.53,0.011,1.229,0.015,2.101,0.015c4.337,0,7.227-0.853,8.673-2.559c1.445-1.706,3.405-6.11,5.881-13.208l12.811-36.781h-10.387
			L440.655,59.436z M474.889,21.749h-9.68V32.21h-5.231v6.914h5.231v23.067c0,2.339,0.549,4.067,1.647,5.191
			c1.692,1.765,4.85,2.566,9.472,2.405l4.633-0.241v-7.274c-0.321,0.041-0.646,0.071-0.979,0.09c-0.331,0.022-0.646,0.03-0.943,0.03
			c-1.988,0-3.179-0.188-3.566-0.567c-0.391-0.378-0.584-1.336-0.584-2.875V39.125h6.072V32.21h-6.072V21.749z M486.569,69.247
			h9.921V31.85h-9.921V69.247z M486.569,27.4h9.921v-9.019h-9.921V27.4z M521.129,39.245c2.322,0,4.036,0.759,5.139,2.277
			c0.758,1.127,1.231,2.394,1.415,3.795h10.041c-0.551-5.328-2.318-9.047-5.306-11.151c-2.988-2.104-6.828-3.159-11.521-3.159
			c-5.517,0-9.846,1.781-12.979,5.344c-3.138,3.563-4.704,8.555-4.704,14.975c0,5.689,1.414,10.31,4.246,13.858
			c2.833,3.551,7.252,5.324,13.261,5.324c6.007,0,10.54-2.136,13.603-6.412c1.917-2.651,2.991-5.466,3.221-8.438h-9.98
			c-0.207,1.991-0.791,3.61-1.753,4.86c-0.962,1.249-2.587,1.873-4.88,1.873c-3.228,0-5.428-1.572-6.595-4.72
			c-0.643-1.661-0.962-3.859-0.962-6.593c0-2.869,0.319-5.169,0.966-6.901C515.557,40.891,517.818,39.245,521.129,39.245z
			 M572.719,50.956c-1.94-1.847-4.858-3.227-8.751-4.136c-5.842-1.277-9.242-2.177-10.202-2.705
			c-0.961-0.504-1.439-1.315-1.439-2.439c0-0.893,0.451-1.672,1.353-2.335s2.416-0.998,4.543-0.998c2.582,0,4.412,0.667,5.486,1.997
			c0.571,0.735,0.925,1.732,1.063,2.993h9.8c-0.436-4.569-2.127-7.786-5.072-9.65c-2.946-1.864-6.757-2.796-11.432-2.796
			c-4.93,0-8.751,1.24-11.468,3.716c-2.717,2.477-4.074,5.438-4.074,8.883c0,2.922,0.868,5.158,2.604,6.71
			c1.738,1.576,4.731,2.888,8.978,3.934c5.896,1.391,9.31,2.369,10.235,2.94c0.927,0.571,1.391,1.405,1.391,2.499
			c0,1.143-0.571,1.999-1.71,2.568c-1.139,0.571-2.675,0.855-4.608,0.855c-3.29,0-5.547-0.65-6.766-1.95
			c-0.691-0.733-1.139-1.966-1.346-3.702h-9.92c0,3.833,1.401,6.984,4.21,9.459c2.809,2.473,7.157,3.708,13.049,3.708
			c5.775,0,10.045-1.168,12.807-3.502c2.762-2.337,4.145-5.351,4.145-9.043C575.594,55.161,574.636,52.825,572.719,50.956z"/>
	</g>
</g>
</svg>
